<mxfile host="app.diagrams.net" modified="2022-03-18T08:59:51.133Z" agent="5.0 (Macintosh; Intel Mac OS X 10_15_7) AppleWebKit/537.36 (KHTML, like Gecko) Chrome/99.0.4844.51 Safari/537.36" etag="T6VWGjySUySOynphCzDn" version="17.1.2" type="github">
  <diagram id="xZtH8hMUEGEMVsghmKpM" name="第 1 页">
    <mxGraphModel dx="941" dy="673" grid="1" gridSize="10" guides="1" tooltips="1" connect="1" arrows="1" fold="1" page="1" pageScale="1" pageWidth="850" pageHeight="1100" math="0" shadow="0">
      <root>
        <mxCell id="0" />
        <mxCell id="1" parent="0" />
        <mxCell id="gr07FzTyul6Q71OoSZSg-1" value="行业根标签" style="rounded=1;whiteSpace=wrap;html=1;" vertex="1" parent="1">
          <mxGeometry x="320" y="130" width="120" height="60" as="geometry" />
        </mxCell>
        <mxCell id="gr07FzTyul6Q71OoSZSg-23" style="edgeStyle=orthogonalEdgeStyle;rounded=0;orthogonalLoop=1;jettySize=auto;html=1;exitX=0.5;exitY=0;exitDx=0;exitDy=0;entryX=0.5;entryY=1;entryDx=0;entryDy=0;" edge="1" parent="1" source="gr07FzTyul6Q71OoSZSg-2" target="gr07FzTyul6Q71OoSZSg-1">
          <mxGeometry relative="1" as="geometry" />
        </mxCell>
        <mxCell id="gr07FzTyul6Q71OoSZSg-2" value="行业1" style="rounded=1;whiteSpace=wrap;html=1;" vertex="1" parent="1">
          <mxGeometry x="160" y="240" width="120" height="60" as="geometry" />
        </mxCell>
        <mxCell id="gr07FzTyul6Q71OoSZSg-24" style="edgeStyle=orthogonalEdgeStyle;rounded=0;orthogonalLoop=1;jettySize=auto;html=1;exitX=0.5;exitY=0;exitDx=0;exitDy=0;entryX=0.5;entryY=1;entryDx=0;entryDy=0;" edge="1" parent="1" source="gr07FzTyul6Q71OoSZSg-3" target="gr07FzTyul6Q71OoSZSg-1">
          <mxGeometry relative="1" as="geometry" />
        </mxCell>
        <mxCell id="gr07FzTyul6Q71OoSZSg-27" style="edgeStyle=orthogonalEdgeStyle;rounded=0;orthogonalLoop=1;jettySize=auto;html=1;exitX=0.75;exitY=0;exitDx=0;exitDy=0;entryX=0.5;entryY=1;entryDx=0;entryDy=0;dashed=1;" edge="1" parent="1" source="gr07FzTyul6Q71OoSZSg-3" target="gr07FzTyul6Q71OoSZSg-26">
          <mxGeometry relative="1" as="geometry">
            <Array as="points">
              <mxPoint x="410" y="230" />
              <mxPoint x="640" y="230" />
            </Array>
          </mxGeometry>
        </mxCell>
        <mxCell id="gr07FzTyul6Q71OoSZSg-3" value="行业2" style="rounded=1;whiteSpace=wrap;html=1;" vertex="1" parent="1">
          <mxGeometry x="320" y="240" width="120" height="60" as="geometry" />
        </mxCell>
        <mxCell id="gr07FzTyul6Q71OoSZSg-25" style="edgeStyle=orthogonalEdgeStyle;rounded=0;orthogonalLoop=1;jettySize=auto;html=1;exitX=0.5;exitY=0;exitDx=0;exitDy=0;" edge="1" parent="1" source="gr07FzTyul6Q71OoSZSg-4">
          <mxGeometry relative="1" as="geometry">
            <mxPoint x="380" y="190" as="targetPoint" />
          </mxGeometry>
        </mxCell>
        <mxCell id="gr07FzTyul6Q71OoSZSg-28" style="edgeStyle=orthogonalEdgeStyle;rounded=0;orthogonalLoop=1;jettySize=auto;html=1;exitX=1;exitY=0.5;exitDx=0;exitDy=0;entryX=0.5;entryY=1;entryDx=0;entryDy=0;dashed=1;" edge="1" parent="1" source="gr07FzTyul6Q71OoSZSg-4" target="gr07FzTyul6Q71OoSZSg-26">
          <mxGeometry relative="1" as="geometry" />
        </mxCell>
        <mxCell id="gr07FzTyul6Q71OoSZSg-4" value="行业3" style="rounded=1;whiteSpace=wrap;html=1;" vertex="1" parent="1">
          <mxGeometry x="480" y="240" width="120" height="60" as="geometry" />
        </mxCell>
        <mxCell id="gr07FzTyul6Q71OoSZSg-14" style="edgeStyle=orthogonalEdgeStyle;rounded=0;orthogonalLoop=1;jettySize=auto;html=1;exitX=0.5;exitY=0;exitDx=0;exitDy=0;entryX=0.5;entryY=1;entryDx=0;entryDy=0;" edge="1" parent="1" source="gr07FzTyul6Q71OoSZSg-5" target="gr07FzTyul6Q71OoSZSg-2">
          <mxGeometry relative="1" as="geometry" />
        </mxCell>
        <mxCell id="gr07FzTyul6Q71OoSZSg-5" value="概念1" style="rounded=1;whiteSpace=wrap;html=1;" vertex="1" parent="1">
          <mxGeometry x="30" y="350" width="60" height="60" as="geometry" />
        </mxCell>
        <mxCell id="gr07FzTyul6Q71OoSZSg-15" style="edgeStyle=orthogonalEdgeStyle;rounded=0;orthogonalLoop=1;jettySize=auto;html=1;exitX=0.5;exitY=0;exitDx=0;exitDy=0;entryX=0.5;entryY=1;entryDx=0;entryDy=0;" edge="1" parent="1" source="gr07FzTyul6Q71OoSZSg-6" target="gr07FzTyul6Q71OoSZSg-2">
          <mxGeometry relative="1" as="geometry" />
        </mxCell>
        <mxCell id="gr07FzTyul6Q71OoSZSg-6" value="概念2" style="rounded=1;whiteSpace=wrap;html=1;" vertex="1" parent="1">
          <mxGeometry x="110" y="350" width="60" height="60" as="geometry" />
        </mxCell>
        <mxCell id="gr07FzTyul6Q71OoSZSg-16" style="edgeStyle=orthogonalEdgeStyle;rounded=0;orthogonalLoop=1;jettySize=auto;html=1;exitX=0.5;exitY=0;exitDx=0;exitDy=0;entryX=0.5;entryY=1;entryDx=0;entryDy=0;" edge="1" parent="1" source="gr07FzTyul6Q71OoSZSg-7" target="gr07FzTyul6Q71OoSZSg-2">
          <mxGeometry relative="1" as="geometry" />
        </mxCell>
        <mxCell id="gr07FzTyul6Q71OoSZSg-7" value="概念3" style="rounded=1;whiteSpace=wrap;html=1;" vertex="1" parent="1">
          <mxGeometry x="190" y="350" width="60" height="60" as="geometry" />
        </mxCell>
        <mxCell id="gr07FzTyul6Q71OoSZSg-17" style="edgeStyle=orthogonalEdgeStyle;rounded=0;orthogonalLoop=1;jettySize=auto;html=1;exitX=0.5;exitY=0;exitDx=0;exitDy=0;" edge="1" parent="1" source="gr07FzTyul6Q71OoSZSg-8" target="gr07FzTyul6Q71OoSZSg-3">
          <mxGeometry relative="1" as="geometry" />
        </mxCell>
        <mxCell id="gr07FzTyul6Q71OoSZSg-8" value="概念1" style="rounded=1;whiteSpace=wrap;html=1;" vertex="1" parent="1">
          <mxGeometry x="280" y="350" width="60" height="60" as="geometry" />
        </mxCell>
        <mxCell id="gr07FzTyul6Q71OoSZSg-18" style="edgeStyle=orthogonalEdgeStyle;rounded=0;orthogonalLoop=1;jettySize=auto;html=1;exitX=0.5;exitY=0;exitDx=0;exitDy=0;entryX=0.5;entryY=1;entryDx=0;entryDy=0;" edge="1" parent="1" source="gr07FzTyul6Q71OoSZSg-9" target="gr07FzTyul6Q71OoSZSg-3">
          <mxGeometry relative="1" as="geometry" />
        </mxCell>
        <mxCell id="gr07FzTyul6Q71OoSZSg-9" value="概念2" style="rounded=1;whiteSpace=wrap;html=1;" vertex="1" parent="1">
          <mxGeometry x="350" y="350" width="60" height="60" as="geometry" />
        </mxCell>
        <mxCell id="gr07FzTyul6Q71OoSZSg-19" style="edgeStyle=orthogonalEdgeStyle;rounded=0;orthogonalLoop=1;jettySize=auto;html=1;exitX=0.5;exitY=0;exitDx=0;exitDy=0;entryX=0.5;entryY=1;entryDx=0;entryDy=0;" edge="1" parent="1" source="gr07FzTyul6Q71OoSZSg-10" target="gr07FzTyul6Q71OoSZSg-3">
          <mxGeometry relative="1" as="geometry" />
        </mxCell>
        <mxCell id="gr07FzTyul6Q71OoSZSg-10" value="概念3" style="rounded=1;whiteSpace=wrap;html=1;" vertex="1" parent="1">
          <mxGeometry x="425" y="350" width="60" height="60" as="geometry" />
        </mxCell>
        <mxCell id="gr07FzTyul6Q71OoSZSg-20" style="edgeStyle=orthogonalEdgeStyle;rounded=0;orthogonalLoop=1;jettySize=auto;html=1;exitX=0.5;exitY=0;exitDx=0;exitDy=0;entryX=0.5;entryY=1;entryDx=0;entryDy=0;" edge="1" parent="1" source="gr07FzTyul6Q71OoSZSg-11" target="gr07FzTyul6Q71OoSZSg-4">
          <mxGeometry relative="1" as="geometry" />
        </mxCell>
        <mxCell id="gr07FzTyul6Q71OoSZSg-11" value="概念1" style="rounded=1;whiteSpace=wrap;html=1;" vertex="1" parent="1">
          <mxGeometry x="510" y="350" width="60" height="60" as="geometry" />
        </mxCell>
        <mxCell id="gr07FzTyul6Q71OoSZSg-21" style="edgeStyle=orthogonalEdgeStyle;rounded=0;orthogonalLoop=1;jettySize=auto;html=1;exitX=0.5;exitY=0;exitDx=0;exitDy=0;entryX=0.5;entryY=1;entryDx=0;entryDy=0;" edge="1" parent="1" source="gr07FzTyul6Q71OoSZSg-12" target="gr07FzTyul6Q71OoSZSg-4">
          <mxGeometry relative="1" as="geometry" />
        </mxCell>
        <mxCell id="gr07FzTyul6Q71OoSZSg-12" value="概念2" style="rounded=1;whiteSpace=wrap;html=1;" vertex="1" parent="1">
          <mxGeometry x="600" y="350" width="60" height="60" as="geometry" />
        </mxCell>
        <mxCell id="gr07FzTyul6Q71OoSZSg-22" style="edgeStyle=orthogonalEdgeStyle;rounded=0;orthogonalLoop=1;jettySize=auto;html=1;exitX=0.5;exitY=0;exitDx=0;exitDy=0;entryX=0.5;entryY=1;entryDx=0;entryDy=0;" edge="1" parent="1" source="gr07FzTyul6Q71OoSZSg-13" target="gr07FzTyul6Q71OoSZSg-4">
          <mxGeometry relative="1" as="geometry" />
        </mxCell>
        <mxCell id="gr07FzTyul6Q71OoSZSg-13" value="概念3" style="rounded=1;whiteSpace=wrap;html=1;" vertex="1" parent="1">
          <mxGeometry x="680" y="350" width="60" height="60" as="geometry" />
        </mxCell>
        <mxCell id="gr07FzTyul6Q71OoSZSg-26" value="行业组合标签" style="rounded=1;whiteSpace=wrap;html=1;" vertex="1" parent="1">
          <mxGeometry x="580" y="130" width="120" height="60" as="geometry" />
        </mxCell>
      </root>
    </mxGraphModel>
  </diagram>
</mxfile>
